<svg width="953" height="271" viewBox="0 0 953 271" fill="none" xmlns="http://www.w3.org/2000/svg">
<path d="M31.616 161.28C22.9973 161.28 16.3413 158.379 11.648 152.576C7.04 146.688 4.736 139.136 4.736 129.92C4.736 120.704 7.08267 113.195 11.776 107.392C16.5547 101.504 23.3813 98.56 32.256 98.56C35.328 98.56 38.6133 99.2 42.112 100.48C43.392 101.077 44.5867 101.717 45.696 102.4V92.16C45.696 87.808 45.0987 84.608 43.904 82.56C42.7093 80.4267 40.32 79.36 36.736 79.36H35.456V75.52H50.816C53.888 75.52 56.2347 76.032 57.856 77.056C59.4773 78.08 60.6293 79.7867 61.312 82.176C61.9947 84.48 62.336 87.808 62.336 92.16V160H51.456L46.976 154.24H46.336C45.568 155.435 44.3733 156.629 42.752 157.824C39.8507 160.128 36.1387 161.28 31.616 161.28ZM34.176 155.52C37.3333 155.52 40.192 154.155 42.752 151.424C43.6907 150.485 44.672 149.077 45.696 147.2V108.16C44.8427 107.477 43.8187 106.837 42.624 106.24C39.8933 104.96 37.2907 104.32 34.816 104.32C26.2827 104.32 22.016 112.853 22.016 129.92C22.016 137.856 22.9547 144.128 24.832 148.736C26.7947 153.259 29.9093 155.52 34.176 155.52ZM314.027 185.6C304.299 185.6 296.619 184.021 290.987 180.864C285.44 177.792 282.667 172.757 282.667 165.76C282.667 161.493 284.374 157.952 287.787 155.136C291.2 152.32 295.254 150.315 299.947 149.12C296.107 147.925 294.187 145.579 294.187 142.08C294.187 139.179 295.894 137.045 299.307 135.68C295.638 134.4 292.566 132.181 290.091 129.024C287.702 125.867 286.507 122.368 286.507 118.528C286.507 111.531 288.982 106.453 293.931 103.296C298.966 100.139 305.664 98.56 314.027 98.56H340.907V102.016L329.387 103.552C332.971 104.917 335.872 107.008 338.091 109.824C340.395 112.64 341.547 115.541 341.547 118.528C341.547 125.525 339.158 130.56 334.379 133.632C329.686 136.704 322.902 138.24 314.027 138.24C309.59 138.24 306.347 138.496 304.299 139.008C302.251 139.435 301.227 140.459 301.227 142.08C301.227 143.445 302.251 144.341 304.299 144.768C306.347 145.195 309.59 145.451 314.027 145.536C323.243 145.707 330.752 147.541 336.555 151.04C342.443 154.453 345.387 159.36 345.387 165.76C345.387 172.757 342.571 177.792 336.939 180.864C331.392 184.021 323.755 185.6 314.027 185.6ZM314.027 133.12C320.854 133.12 324.267 128.256 324.267 118.528C324.267 113.749 323.328 110.08 321.451 107.52C319.574 104.96 317.099 103.68 314.027 103.68C310.87 103.68 308.352 104.917 306.475 107.392C304.683 109.867 303.787 113.579 303.787 118.528C303.787 128.256 307.2 133.12 314.027 133.12ZM314.027 179.84C318.464 179.84 321.92 178.645 324.395 176.256C326.87 173.952 328.107 170.453 328.107 165.76C328.107 162.005 326.912 158.891 324.523 156.416C322.219 153.856 319.062 152.192 315.051 151.424L309.035 150.784C306.048 152.064 303.787 153.899 302.251 156.288C300.715 158.677 299.947 161.835 299.947 165.76C299.947 170.453 301.184 173.952 303.659 176.256C306.134 178.645 309.59 179.84 314.027 179.84ZM358.115 116.48C358.115 112.128 357.518 108.928 356.323 106.88C355.214 104.747 352.867 103.68 349.283 103.68H348.003V99.84H360.675C363.576 99.84 365.838 100.224 367.459 100.992C369.166 101.675 370.488 102.869 371.427 104.576C375.779 100.565 382.008 98.56 390.115 98.56C398.222 98.56 404.28 100.48 408.291 104.32C412.387 108.075 414.435 114.005 414.435 122.112V160H397.795V121.984C397.795 116.096 396.686 111.787 394.467 109.056C392.334 106.325 389.39 104.96 385.635 104.96C382.99 104.96 380.643 105.344 378.595 106.112C376.632 106.795 375.054 107.733 373.859 108.928L374.243 110.72C374.584 111.744 374.755 113.408 374.755 115.712V160H358.115V116.48ZM456.828 161.28C450.599 161.28 445.137 159.915 440.444 157.184C435.836 154.368 432.295 150.613 429.82 145.92C427.345 141.141 426.108 135.808 426.108 129.92C426.108 124.032 427.345 118.741 429.82 114.048C432.295 109.269 435.836 105.515 440.444 102.784C445.137 99.968 450.599 98.56 456.828 98.56C463.057 98.56 468.476 99.968 473.084 102.784C477.777 105.515 481.361 109.269 483.836 114.048C486.311 118.741 487.548 124.032 487.548 129.92C487.548 135.808 486.311 141.141 483.836 145.92C481.361 150.613 477.777 154.368 473.084 157.184C468.476 159.915 463.057 161.28 456.828 161.28ZM456.828 155.52C461.18 155.52 464.508 153.173 466.812 148.48C469.116 143.787 470.268 137.6 470.268 129.92C470.268 122.24 469.116 116.053 466.812 111.36C464.508 106.667 461.18 104.32 456.828 104.32C452.476 104.32 449.148 106.667 446.844 111.36C444.54 116.053 443.388 122.24 443.388 129.92C443.388 137.6 444.54 143.787 446.844 148.48C449.148 153.173 452.476 155.52 456.828 155.52ZM521.437 161.28C511.453 161.28 504.584 159.531 500.829 156.032C499.464 154.752 498.61 152.96 498.269 150.656C497.928 148.267 497.757 144.981 497.757 140.8H502.237C503.005 145.237 504.754 148.821 507.485 151.552C510.216 154.197 514.013 155.52 518.877 155.52C527.41 155.52 531.677 152.619 531.677 146.816C531.677 144.597 530.738 142.763 528.861 141.312C527.069 139.861 524.168 138.24 520.157 136.448L513.501 133.632C508.04 131.243 503.944 128.64 501.213 125.824C498.482 123.008 497.117 119.595 497.117 115.584C497.117 110.208 499.336 106.027 503.773 103.04C508.296 100.053 514.184 98.56 521.437 98.56C531.421 98.56 538.29 100.309 542.045 103.808C543.41 105.088 544.264 106.88 544.605 109.184C544.946 111.488 545.117 114.773 545.117 119.04H540.637C539.869 114.603 538.12 111.061 535.389 108.416C532.658 105.685 528.861 104.32 523.997 104.32C520.328 104.32 517.597 105.131 515.805 106.752C514.013 108.288 513.117 110.379 513.117 113.024C513.117 115.157 513.842 116.949 515.293 118.4C516.829 119.765 519.133 121.131 522.205 122.496L529.885 125.696C536.2 128.341 540.722 131.029 543.453 133.76C546.269 136.405 547.677 139.904 547.677 144.256C547.677 149.717 545.245 153.941 540.381 156.928C535.602 159.829 529.288 161.28 521.437 161.28ZM570.432 92.928C567.36 92.928 564.971 91.9893 563.264 90.112C561.643 88.2347 560.832 85.9307 560.832 83.2C560.832 80.9813 561.472 79.232 562.752 77.952C564.117 76.672 565.824 76.032 567.872 76.032C570.944 76.032 573.291 76.9707 574.912 78.848C576.619 80.7253 577.472 83.0293 577.472 85.76C577.472 87.9787 576.789 89.728 575.424 91.008C574.144 92.288 572.48 92.928 570.432 92.928ZM562.112 116.48C562.112 112.128 561.515 108.928 560.32 106.88C559.125 104.747 556.736 103.68 553.152 103.68H551.872V99.84H567.232C570.304 99.84 572.651 100.352 574.272 101.376C575.893 102.4 577.045 104.107 577.728 106.496C578.411 108.8 578.752 112.128 578.752 116.48V160H562.112V116.48ZM615.437 161.28C605.453 161.28 598.584 159.531 594.829 156.032C593.464 154.752 592.61 152.96 592.269 150.656C591.928 148.267 591.757 144.981 591.757 140.8H596.237C597.005 145.237 598.754 148.821 601.485 151.552C604.216 154.197 608.013 155.52 612.877 155.52C621.41 155.52 625.677 152.619 625.677 146.816C625.677 144.597 624.738 142.763 622.861 141.312C621.069 139.861 618.168 138.24 614.157 136.448L607.501 133.632C602.04 131.243 597.944 128.64 595.213 125.824C592.482 123.008 591.117 119.595 591.117 115.584C591.117 110.208 593.336 106.027 597.773 103.04C602.296 100.053 608.184 98.56 615.437 98.56C625.421 98.56 632.29 100.309 636.045 103.808C637.41 105.088 638.264 106.88 638.605 109.184C638.946 111.488 639.117 114.773 639.117 119.04H634.637C633.869 114.603 632.12 111.061 629.389 108.416C626.658 105.685 622.861 104.32 617.997 104.32C614.328 104.32 611.597 105.131 609.805 106.752C608.013 108.288 607.117 110.379 607.117 113.024C607.117 115.157 607.842 116.949 609.293 118.4C610.829 119.765 613.133 121.131 616.205 122.496L623.885 125.696C630.2 128.341 634.722 131.029 637.453 133.76C640.269 136.405 641.677 139.904 641.677 144.256C641.677 149.717 639.245 153.941 634.381 156.928C629.602 159.829 623.288 161.28 615.437 161.28ZM656.41 92.16C656.41 87.808 655.813 84.608 654.618 82.56C653.423 80.4267 651.034 79.36 647.45 79.36H646.17V75.52H661.53C664.602 75.52 666.949 76.032 668.57 77.056C670.191 78.08 671.343 79.7867 672.026 82.176C672.709 84.48 673.05 87.808 673.05 92.16V154.24H717.21V160H656.41V92.16ZM742.722 161.28C735.81 161.28 730.434 159.744 726.594 156.672C722.839 153.515 720.962 149.291 720.962 144C720.962 139.733 721.943 136.192 723.906 133.376C725.954 130.56 729.495 128.427 734.53 126.976C739.565 125.525 746.562 124.8 755.522 124.8H757.442C757.442 117.376 756.418 112.128 754.37 109.056C752.322 105.899 749.293 104.32 745.282 104.32C741.954 104.32 739.223 105.131 737.09 106.752C734.957 108.373 733.421 111.403 732.482 115.84H725.442C725.442 112.939 725.613 110.464 725.954 108.416C726.381 106.368 727.277 104.576 728.642 103.04C731.287 100.053 737.687 98.56 747.842 98.56C756.375 98.56 762.861 100.821 767.298 105.344C771.821 109.781 774.082 116.48 774.082 125.44V160H763.202L758.722 154.24H758.082C757.314 155.435 756.119 156.629 754.498 157.824C751.597 160.128 747.671 161.28 742.722 161.28ZM746.562 154.88C748.354 154.88 749.89 154.539 751.17 153.856C752.45 153.088 753.687 152.064 754.882 150.784C755.991 149.589 756.845 148.181 757.442 146.56V130.56H755.522C749.463 130.56 745.069 131.669 742.338 133.888C739.607 136.021 738.242 139.392 738.242 144C738.242 147.499 738.967 150.187 740.418 152.064C741.869 153.941 743.917 154.88 746.562 154.88ZM819.15 161.28C814.542 161.28 810.787 160.128 807.886 157.824C806.435 156.8 805.283 155.605 804.43 154.24H803.79L799.31 160H788.43V92.16C788.43 87.808 787.833 84.608 786.638 82.56C785.443 80.4267 783.054 79.36 779.47 79.36H778.19V75.52H793.55C796.622 75.52 798.969 76.032 800.59 77.056C802.211 78.08 803.363 79.7867 804.046 82.176C804.729 84.48 805.07 87.808 805.07 92.16V102.4C806.179 101.717 807.374 101.077 808.654 100.48C812.153 99.2 815.438 98.56 818.51 98.56C827.385 98.56 834.169 101.504 838.862 107.392C843.641 113.195 846.03 120.704 846.03 129.92C846.03 139.136 843.683 146.688 838.99 152.576C834.382 158.379 827.769 161.28 819.15 161.28ZM816.59 155.52C820.771 155.52 823.843 153.216 825.806 148.608C827.769 144 828.75 137.771 828.75 129.92C828.75 112.853 824.483 104.32 815.95 104.32C813.475 104.32 810.873 104.96 808.142 106.24C806.947 106.923 805.923 107.563 805.07 108.16V147.2C805.838 148.907 806.777 150.315 807.886 151.424C810.446 154.155 813.347 155.52 816.59 155.52Z" fill="#1C1C1C"/>
<path d="M150.384 160.512C145.008 160.512 140.144 159.403 135.792 157.184C131.44 154.88 127.899 150.443 125.168 143.872L122.224 136.704H88.176L77.68 160H71.024L108.784 75.52H114.544L143.216 143.872C146.459 151.808 150.896 156.075 156.528 156.672V159.872C154.992 160.299 152.944 160.512 150.384 160.512ZM90.864 130.944H119.792L105.712 97.536L90.864 130.944Z" fill="#27B15A"/>
<path d="M214.13 264.346C224.812 245.431 220.17 236.368 216.514 234.201L224.621 226.517C231.87 231.719 231.775 238.142 230.821 240.703C229.676 245.904 220.17 261.784 215.56 269.074L214.13 264.346Z" fill="#1C1C1C"/>
<path d="M221.76 193.417C244.174 175.685 227.483 164.061 218.422 161.499V175.685C220.329 178.049 219.694 187.31 218.899 189.871L221.76 193.417Z" fill="#1C1C1C"/>
<path d="M205.122 230.201C180.205 218.693 194.312 199.007 202.737 194.146L202.737 200.648L203.214 204.785C201.749 207.593 202.958 220.22 204.168 222.517L205.122 230.201Z" fill="#1C1C1C"/>
<path d="M217.945 217.242L216.991 229.655C222.236 223.744 231.297 214.287 229.867 207.785C227.959 201.874 223.19 195.964 218.898 193.599L219.375 203.056L218.898 207.785C220.806 210.149 218.739 214.681 217.945 217.242Z" fill="#1C1C1C"/>
<path d="M208.092 262.346C197.41 243.431 203.025 236.733 206.681 234.565L196.666 228.064C189.417 233.265 192.831 240.87 193.785 243.431C194.93 248.633 205.866 262.149 210.476 269.438L208.092 262.346Z" fill="#1C1C1C"/>
<path d="M204.023 175.458L203.069 171.912L190.67 170.139C189.144 182.906 198.3 191.22 203.069 193.782V180.778C202.306 176.995 203.387 175.655 204.023 175.458Z" fill="#1C1C1C"/>
<path d="M237.928 93.8908C227.436 90.9354 223.144 94.6789 222.191 96.2551C220.283 97.7045 219.806 102.166 222.191 103.939L223.86 105.712L225.529 107.485L230.298 110.441C234.908 112.608 242.22 118.125 246.035 116.351C249.85 116.351 254.142 119.307 258.434 124.626C262.726 129.946 262.408 135.857 260.819 139.403C258.911 147.915 238.882 150.633 230.298 154.18L218.376 156.544L225.052 159.499C225.052 159.499 232.205 163.046 232.205 167.183C232.205 171.321 255.096 160.682 263.203 154.18C271.31 147.678 276.36 135.184 272.264 122.853C268.926 112.805 256.527 105.121 249.85 102.757C247.466 94.4818 246.035 93.2997 243.651 92.7086L237.928 93.8908Z" fill="#1C1C1C"/>
<path d="M185.97 94.4819C196.461 91.5265 200.753 95.2699 201.707 96.8461C203.615 98.2956 204.092 102.757 201.707 104.53L200.038 106.303L198.369 108.076L193.6 111.032C188.99 113.199 181.678 118.716 177.863 116.942C174.048 116.942 169.755 119.898 165.464 125.217C161.172 130.537 161.49 136.448 163.079 139.994C164.987 148.506 188.332 151.225 196.916 154.771L200.038 158.317C200.038 158.317 204.546 164.228 204.546 168.366C204.546 172.503 168.802 161.273 160.695 154.771C152.588 148.269 147.537 135.775 151.634 123.444C154.972 113.396 167.371 105.712 174.048 103.348C176.432 95.0729 177.863 93.8908 180.247 93.2997L185.97 94.4819Z" fill="#1C1C1C"/>
<path d="M130.212 65.8389C105.756 69.6311 94.5475 54.7782 92 46.8776C95.8073 51.618 110.003 59.5817 136.326 53.5141C162.65 47.4465 176.831 49.7218 182.181 49.7218C189.823 49.7218 200.777 60.7826 205.108 67.735C208.777 58.6336 190.588 43.9524 186.766 36.3679C192.88 39.2121 193.645 40.1602 196.702 43.0043C199.758 45.8484 210.458 55.3292 211.986 58.1734C215.043 53.433 220.322 42.4029 224.214 38.264C229.564 32.5756 230.838 31.9437 231.857 30.6795C232.468 29.9211 227.526 42.3725 225.743 44.9006C218.406 56.2774 217.081 65.8389 218.1 69.6311C225.743 47.8257 240.263 48.6929 247.142 46.7967C252.644 45.2798 281.023 52.25 294.525 55.4102C315.924 56.9271 327.387 50.3539 330.444 46.8776C329.68 49.4058 326.929 57.0358 322.038 60.0696C315.924 63.8619 313.631 67.735 294.525 65.8389C275.419 63.9428 264.719 59.2025 247.142 63.9428C229.564 68.6831 223.45 81.956 219.629 93.3327C216.572 102.434 218.355 114.19 219.629 118.93C220.852 125.756 224.724 130.623 226.507 132.203C237.512 140.546 238.225 129.359 237.206 122.723C239.652 124.998 240.263 129.991 240.263 132.203C239.499 140.736 234.15 143.58 227.271 141.684C221.769 140.167 217.846 135.364 216.572 133.151V202.675L211.222 270.621L205.872 202.675V133.151C203.427 137.702 199.249 140.736 197.466 141.684C188.906 144.718 184.219 139.156 182.945 135.996C181.722 127.653 184.983 124.303 186.766 123.671C184.932 124.429 184.983 128.411 185.238 130.307C187.072 139.409 194.154 135.364 197.466 132.203C207.401 118.93 205.108 99.0211 203.58 94.2808C202.051 89.5405 196.702 72.4753 182.945 66.787C169.189 61.0986 160.782 61.0986 130.212 65.8389Z" fill="#27B15A"/>
<path d="M224.343 17.1068C224.343 29.0742 218.356 43.3375 208.701 43.3375C199.045 43.3375 189.378 29.0742 189.378 17.1068C189.378 5.13952 197.205 0 206.861 0C216.516 0 224.343 5.13952 224.343 17.1068Z" fill="#1C1C1C"/>
<ellipse cx="185" cy="99.5" rx="2" ry="2.5" fill="#27B15A"/>
<ellipse cx="232" cy="99.5" rx="2" ry="2.5" fill="#27B15A"/>
<path d="M611.205 188.235C548.117 184.771 494.522 216.176 487 225C531.127 205.939 581.954 209.999 611.205 214.411C653.264 220.755 694.034 233.476 747.897 237.768C804.414 242.271 818.099 239.111 836.5 230.5C848.609 219.911 861.588 198.973 845.535 182C832.015 207.633 797.185 214.411 771.555 214.411C737.382 219.111 648.007 192.392 611.205 188.235Z" fill="#1C1C1C"/>
</svg>
